<svg width="301" height="112" viewBox="0 0 301 112" fill="none" xmlns="http://www.w3.org/2000/svg">
    <path
        d="M301 71.3405C301 71.5652 300.888 71.6775 300.663 71.6775H287.889C287.799 71.6775 287.754 71.7225 287.754 71.8124V80.9127C287.754 81.0026 287.799 81.0475 287.889 81.0475H296.955C297.18 81.0475 297.293 81.1599 297.293 81.3846V82.2946C297.293 82.5193 297.18 82.6317 296.955 82.6317H287.889C287.799 82.6317 287.754 82.6766 287.754 82.7665V91.9679C287.754 92.0578 287.799 92.1028 287.889 92.1028H300.663C300.888 92.1028 301 92.2151 301 92.4398V93.3498C301 93.5745 300.888 93.6869 300.663 93.6869H286.305C286.08 93.6869 285.968 93.5745 285.968 93.3498V70.4304C285.968 70.2057 286.08 70.0934 286.305 70.0934H300.663C300.888 70.0934 301 70.2057 301 70.4304V71.3405Z"
        fill="#F7E1D7" />
    <path
        d="M262.663 93.9902C261.135 93.9902 259.787 93.6869 258.619 93.0802C257.45 92.4735 256.54 91.6196 255.889 90.5186C255.26 89.3951 254.945 88.1143 254.945 86.6763V77.0703C254.945 75.6322 255.26 74.3739 255.889 73.2954C256.54 72.1943 257.45 71.3405 258.619 70.7338C259.787 70.1271 261.135 69.8238 262.663 69.8238C264.169 69.8238 265.506 70.1271 266.674 70.7338C267.843 71.318 268.742 72.1494 269.371 73.228C270.022 74.3065 270.348 75.5536 270.348 76.9692V77.0029C270.348 77.1153 270.314 77.2051 270.247 77.2726C270.18 77.34 270.101 77.3737 270.011 77.3737L268.899 77.4411C268.674 77.4411 268.562 77.3287 268.562 77.104V77.0029C268.562 75.3177 268.022 73.9695 266.944 72.9583C265.865 71.9247 264.439 71.4079 262.663 71.4079C260.866 71.4079 259.428 71.9247 258.349 72.9583C257.271 73.9695 256.731 75.3177 256.731 77.0029V86.7774C256.731 88.4626 257.271 89.8221 258.349 90.8557C259.45 91.8893 260.888 92.4061 262.663 92.4061C264.439 92.4061 265.865 91.8893 266.944 90.8557C268.022 89.8221 268.562 88.4626 268.562 86.7774V86.71C268.562 86.5077 268.674 86.4066 268.899 86.4066L270.011 86.474C270.236 86.474 270.348 86.5751 270.348 86.7774C270.348 88.193 270.022 89.4513 269.371 90.5523C268.742 91.6309 267.843 92.4735 266.674 93.0802C265.506 93.6869 264.169 93.9902 262.663 93.9902Z"
        fill="#F7E1D7" />
    <path
        d="M237.293 70.4304C237.293 70.2057 237.405 70.0934 237.63 70.0934H238.742C238.967 70.0934 239.079 70.2057 239.079 70.4304V93.3498C239.079 93.5745 238.967 93.6869 238.742 93.6869H237.63C237.473 93.6869 237.338 93.6083 237.226 93.451L225.024 73.6661C225.002 73.5987 224.968 73.5762 224.923 73.5987C224.878 73.5987 224.856 73.6324 224.856 73.6998V93.3498C224.856 93.5745 224.744 93.6869 224.519 93.6869H223.407C223.182 93.6869 223.07 93.5745 223.07 93.3498V70.4304C223.07 70.2057 223.182 70.0934 223.407 70.0934H224.553C224.71 70.0934 224.845 70.172 224.957 70.3293L237.125 90.1142C237.147 90.1816 237.181 90.2153 237.226 90.2153C237.271 90.1928 237.293 90.1479 237.293 90.0805V70.4304Z"
        fill="#F7E1D7" />
    <path
        d="M207.166 93.6869C206.964 93.6869 206.829 93.597 206.762 93.4173L205.312 88.9345C205.29 88.8671 205.245 88.8334 205.178 88.8334H194.662C194.594 88.8334 194.549 88.8671 194.527 88.9345L193.111 93.4173C193.044 93.597 192.909 93.6869 192.707 93.6869H191.527C191.28 93.6869 191.19 93.5633 191.257 93.3161L198.74 70.363C198.807 70.1833 198.942 70.0934 199.144 70.0934H200.661C200.863 70.0934 200.998 70.1833 201.066 70.363L208.582 93.3161L208.615 93.451C208.615 93.6083 208.514 93.6869 208.312 93.6869H207.166ZM195.066 87.1818C195.044 87.2268 195.044 87.2717 195.066 87.3166C195.111 87.3391 195.156 87.3504 195.201 87.3504H204.638C204.683 87.3504 204.717 87.3391 204.739 87.3166C204.784 87.2717 204.796 87.2268 204.773 87.1818L200.021 72.5202C199.998 72.4752 199.964 72.4527 199.92 72.4527C199.875 72.4527 199.841 72.4752 199.818 72.5202L195.066 87.1818Z"
        fill="#F7E1D7" />
    <path
        d="M175.541 93.6869C175.339 93.6869 175.204 93.6083 175.137 93.451L169.98 82.7328C169.958 82.6654 169.913 82.6317 169.845 82.6317H163.475C163.385 82.6317 163.34 82.6766 163.34 82.7665V93.3498C163.34 93.5745 163.228 93.6869 163.003 93.6869H161.891C161.666 93.6869 161.554 93.5745 161.554 93.3498V70.4304C161.554 70.2057 161.666 70.0934 161.891 70.0934H170.385C172.272 70.0934 173.789 70.6776 174.935 71.8461C176.103 73.0145 176.687 74.5425 176.687 76.4299C176.687 78.0253 176.249 79.3735 175.373 80.4745C174.497 81.5531 173.317 82.2272 171.834 82.4968C171.722 82.5418 171.688 82.598 171.733 82.6654L176.89 93.2824C176.912 93.3274 176.923 93.3836 176.923 93.451C176.923 93.6083 176.834 93.6869 176.654 93.6869H175.541ZM163.475 71.6775C163.385 71.6775 163.34 71.7225 163.34 71.8124V81.0138C163.34 81.1037 163.385 81.1486 163.475 81.1486H170.216C171.609 81.1486 172.733 80.7105 173.587 79.8341C174.463 78.9578 174.901 77.8231 174.901 76.4299C174.901 75.0143 174.463 73.8684 173.587 72.992C172.733 72.1157 171.609 71.6775 170.216 71.6775H163.475Z"
        fill="#F7E1D7" />
    <path
        d="M147.556 71.3405C147.556 71.5652 147.444 71.6775 147.219 71.6775H134.479C134.389 71.6775 134.344 71.7225 134.344 71.8124V80.9127C134.344 81.0026 134.389 81.0475 134.479 81.0475H143.511C143.736 81.0475 143.849 81.1599 143.849 81.3846V82.2946C143.849 82.5193 143.736 82.6317 143.511 82.6317H134.479C134.389 82.6317 134.344 82.6766 134.344 82.7665V93.3498C134.344 93.5745 134.231 93.6869 134.007 93.6869H132.894C132.67 93.6869 132.557 93.5745 132.557 93.3498V70.4304C132.557 70.2057 132.67 70.0934 132.894 70.0934H147.219C147.444 70.0934 147.556 70.2057 147.556 70.4304V71.3405Z"
        fill="#F7E1D7" />
    <path
        d="M290.8 59.5712C290.354 59.5712 290.07 59.3685 289.949 58.963L288.55 53.0031C288.509 52.8409 288.408 52.7598 288.246 52.7598H276.873C276.711 52.7598 276.61 52.8409 276.569 53.0031L275.17 58.963C275.049 59.3685 274.785 59.5712 274.38 59.5712H267.021C266.494 59.5712 266.291 59.3076 266.413 58.7806L277.36 17.6082C277.481 17.2027 277.765 17 278.211 17H287.029C287.475 17 287.759 17.2027 287.881 17.6082L298.828 58.7806L298.889 59.0238C298.889 59.3887 298.666 59.5712 298.22 59.5712H290.8ZM278.211 45.766C278.171 45.8876 278.191 45.9889 278.272 46.07C278.353 46.1106 278.434 46.1309 278.515 46.1309H286.543C286.624 46.1309 286.705 46.1106 286.786 46.07C286.867 45.9889 286.887 45.8876 286.847 45.766L282.651 28.1293C282.61 27.9671 282.549 27.8861 282.468 27.8861C282.387 27.8861 282.326 27.9671 282.286 28.1293L278.211 45.766Z"
        fill="white" />
    <path
        d="M253.453 59.5712C253.251 59.5712 253.068 59.5104 252.906 59.3887C252.785 59.2266 252.724 59.0441 252.724 58.8414V17.7298C252.724 17.5271 252.785 17.3649 252.906 17.2433C253.068 17.0811 253.251 17 253.453 17H260.569C260.772 17 260.934 17.0811 261.055 17.2433C261.218 17.3649 261.299 17.5271 261.299 17.7298V58.8414C261.299 59.0441 261.218 59.2266 261.055 59.3887C260.934 59.5104 260.772 59.5712 260.569 59.5712H253.453Z"
        fill="white" />
    <path
        d="M218.654 59.5712C218.451 59.5712 218.269 59.5104 218.106 59.3887C217.985 59.2266 217.924 59.0441 217.924 58.8414V17.7298C217.924 17.5271 217.985 17.3649 218.106 17.2433C218.269 17.0811 218.451 17 218.654 17H225.769C225.972 17 226.134 17.0811 226.256 17.2433C226.418 17.3649 226.499 17.5271 226.499 17.7298V33.9068C226.499 34.0285 226.539 34.1096 226.621 34.1501C226.742 34.1906 226.823 34.1501 226.864 34.0285L237.75 17.4865C237.953 17.1622 238.236 17 238.601 17H246.447C246.73 17 246.913 17.0811 246.994 17.2433C247.116 17.4054 247.095 17.6082 246.933 17.8514L235.682 35.3056C235.642 35.4272 235.642 35.5691 235.682 35.7313L247.602 58.7198C247.683 58.8819 247.724 59.0036 247.724 59.0847C247.724 59.409 247.501 59.5712 247.055 59.5712H239.27C238.905 59.5712 238.622 59.3887 238.419 59.0238L229.783 42.3603C229.742 42.2386 229.682 42.1778 229.601 42.1778C229.519 42.1778 229.438 42.2386 229.357 42.3603L226.621 46.3133C226.539 46.4755 226.499 46.5971 226.499 46.6782V58.8414C226.499 59.0441 226.418 59.2266 226.256 59.3887C226.134 59.5104 225.972 59.5712 225.769 59.5712H218.654Z"
        fill="white" />
    <path
        d="M203.358 59.5712C203.156 59.5712 202.973 59.5104 202.811 59.3887C202.689 59.2266 202.629 59.0441 202.629 58.8414V17.7298C202.629 17.5271 202.689 17.3649 202.811 17.2433C202.973 17.0811 203.156 17 203.358 17H210.474C210.677 17 210.839 17.0811 210.96 17.2433C211.123 17.3649 211.204 17.5271 211.204 17.7298V58.8414C211.204 59.0441 211.123 59.2266 210.96 59.3887C210.839 59.5104 210.677 59.5712 210.474 59.5712H203.358Z"
        fill="white" />
    <path
        d="M169.492 59.5712C169.289 59.5712 169.106 59.5104 168.944 59.3887C168.823 59.2266 168.762 59.0441 168.762 58.8414V17.7298C168.762 17.5271 168.823 17.3649 168.944 17.2433C169.106 17.0811 169.289 17 169.492 17H182.567C185.283 17 187.676 17.5068 189.743 18.5204C191.852 19.534 193.473 20.9733 194.609 22.8383C195.744 24.7034 196.311 26.8725 196.311 29.3456V47.2255C196.311 49.6987 195.744 51.8678 194.609 53.7328C193.473 55.5979 191.852 57.0372 189.743 58.0508C187.676 59.0644 185.283 59.5712 182.567 59.5712H169.492ZM177.337 51.9084C177.337 52.1111 177.438 52.2125 177.641 52.2125L182.628 52.1516C184.128 52.1516 185.344 51.6246 186.277 50.5704C187.209 49.4757 187.696 48.0364 187.736 46.2525V30.3187C187.736 28.4942 187.27 27.0549 186.338 26.0008C185.405 24.9061 184.168 24.3587 182.628 24.3587H177.641C177.438 24.3587 177.337 24.4601 177.337 24.6628V51.9084Z"
        fill="white" />
    <path
        d="M155.556 59.5712C155.11 59.5712 154.826 59.3685 154.704 58.963L153.306 53.0031C153.265 52.8409 153.164 52.7598 153.002 52.7598H141.629C141.467 52.7598 141.365 52.8409 141.325 53.0031L139.926 58.963C139.805 59.3685 139.541 59.5712 139.136 59.5712H131.777C131.25 59.5712 131.047 59.3076 131.169 58.7806L142.116 17.6082C142.237 17.2027 142.521 17 142.967 17H151.785C152.231 17 152.515 17.2027 152.637 17.6082L163.584 58.7806L163.644 59.0238C163.644 59.3887 163.421 59.5712 162.975 59.5712H155.556ZM142.967 45.766C142.926 45.8876 142.947 45.9889 143.028 46.07C143.109 46.1106 143.19 46.1309 143.271 46.1309H151.299C151.38 46.1309 151.461 46.1106 151.542 46.07C151.623 45.9889 151.643 45.8876 151.603 45.766L147.407 28.1293C147.366 27.9671 147.305 27.8861 147.224 27.8861C147.143 27.8861 147.082 27.9671 147.042 28.1293L142.967 45.766Z"
        fill="white" />
    <path
        d="M55.748 111.5C86.5367 111.5 111.496 86.5399 111.496 55.75C111.496 24.9601 86.5367 0 55.748 0C24.9592 0 0 24.9601 0 55.75C0 86.5399 24.9592 111.5 55.748 111.5Z"
        fill="#F7E1D7" />
    <path
        d="M100.221 59.0985C99.9909 57.0831 99.8164 55.2184 99.2292 53.3537C98.9991 52.6237 98.5786 51.862 98.166 51.3859C98.293 55.0359 98.2295 59.765 97.6185 64.391C97.3964 65.859 96.2697 67.6205 95.865 68.5171C95.254 69.874 93.3974 73.278 93.5323 74.738C93.6909 76.4757 94.7304 77.4597 95.6746 75.2141C96.4045 73.4685 100.023 68.9694 100.372 67.3586C100.951 65.9463 101.03 65.4305 100.84 63.7483C100.665 62.2169 100.396 60.5982 100.221 59.0985Z"
        fill="#164050" />
    <path
        d="M90.7394 69.4693C90.3585 70.4691 90.8743 72.5242 91.5487 72.2544C91.8978 72.1116 92.4374 70.9849 93.0325 70.0882C94.064 68.541 96.2301 64.5815 96.4919 63.1453C96.6744 62.1614 96.9521 57.5036 96.9204 55.1708C96.9204 54.6154 96.8648 51.3462 96.0159 49.672C95.4366 48.5293 94.3734 46.9821 93.4927 46.1648C92.6278 45.3554 92.0724 45.1729 92.6992 46.625C95.1272 52.2984 94.6035 57.3687 94.1274 60.1935C93.5482 63.5976 91.9058 66.4382 90.7394 69.4773V69.4693Z"
        fill="#164050" />
    <path
        d="M63.0004 5.90351C60.628 5.55438 57.589 5.40362 54.2327 5.56231C37.8241 6.30818 26.0017 13.7114 17.3531 25.1454C33.0555 8.11732 73.4343 7.33177 85.3837 32.6438C85.582 33.2627 85.1377 35.6908 84.7092 37.9602C84.2014 40.6659 83.7888 41.2928 84.5267 43.9271C85.2408 46.4663 85.8121 47.0773 86.8833 49.8227C86.8912 49.8624 86.9071 49.8941 86.923 49.9338C88.2401 53.3378 88.8669 56.0277 89.4461 60.6696C89.5493 61.5027 90.1444 61.8598 90.6363 61.2726C92.9373 60.1459 92.6438 51.854 92.0566 45.8156C91.9059 44.1255 93.6038 43.6335 95.0717 44.6492C95.8572 45.1967 96.9839 46.6012 97.5314 47.3867C98.1424 48.2595 98.6502 49.2038 99.1025 50.2194C99.5468 51.2351 100.213 51.9651 100.499 53.1156C101.419 56.7974 101.673 61.3044 102.443 65.2718C102.641 66.4144 101.411 70.4929 104.046 71.5879C104.26 71.6752 104.625 71.7148 104.799 71.3181L105.347 68.0569C111.044 33.8182 89.8508 9.90266 62.9845 5.91938L63.0004 5.90351Z"
        fill="#164050" />
    <path
        d="M37.0942 46.1013C36.753 46.1013 36.277 46.3631 35.912 46.4187C35.42 46.5059 34.9281 46.3472 34.4758 46.1489C34.8249 46.5456 35.7692 47.4343 36.3484 46.9503C36.4119 46.8947 36.9197 46.6408 36.9911 46.6408C37.4433 46.5773 37.6258 47.4264 37.5386 47.8231C37.7528 47.1804 37.8797 46.1647 37.0942 46.1013Z"
        fill="#164050" />
    <path
        d="M91.4456 79.7687C90.0491 80.332 87.7878 83.625 86.8277 84.8232C86.1929 85.6087 85.098 87.4734 83.8602 88.37C79.9247 91.1075 75.64 93.3769 72.252 94.9718C72.8709 95.1225 73.7595 95.1463 74.5292 95.0194C76.489 94.6861 78.2743 93.9641 80.2182 93.2341C81.6623 92.6866 83.2572 92.1708 84.733 91.6153C86.3516 91.0044 86.788 90.687 87.8116 89.4888C89.1208 88.4176 91.5884 82.9902 92.8579 81.4985C94.4766 79.5862 93.1118 79.0942 91.4535 79.7607L91.4456 79.7687Z"
        fill="#164050" />
    <path
        d="M79.1551 87.1402C76.7906 88.9017 72.4107 91.7582 66.1424 92.1947C64.5397 92.3057 64.9523 92.7263 66.079 93.1389C67.2295 93.5594 69.1179 93.8134 70.4192 93.8134C72.3234 93.8134 75.3306 92.3216 75.8384 92.0677C77.9728 91.0044 82.0988 88.5605 82.916 87.9337C84.1062 87.0132 86.7405 83.1728 87.6847 81.4985C88.2322 80.5305 89.0177 79.4989 88.9939 79.1181C88.9383 78.3722 86.8277 78.8562 86.0898 79.6814C83.8444 82.173 82.0036 85.0136 79.1551 87.1402Z"
        fill="#164050" />
    <path
        d="M32.2777 48.4103C33.0791 50.0846 31.5319 51.1082 30.2544 52.6158C33.6266 52.1794 33.9202 48.7595 32.2777 48.4103Z"
        fill="#164050" />
    <path
        d="M92.739 90.8139C90.557 88.9095 87.3831 91.9486 86.2564 92.2977C82.2892 93.4562 78.068 95.3367 74.2912 96.2175C73.1169 96.4952 72.1489 96.2254 71.0222 96.2889C69.8955 96.3524 68.8084 96.3286 67.7293 96.1778C66.7772 96.0429 64.9761 95.67 64.1271 95.2098C62.5401 94.3449 62.2228 92.5516 63.8335 91.893C66.7455 90.7028 70.673 88.9651 72.7281 87.7431C75.5766 86.053 77.6872 83.3314 77.2904 82.6886C77.1714 82.4903 76.8064 82.4268 76.1955 82.53C74.7831 82.7601 73.6644 83.4742 73.5691 83.5377C71.5062 84.8469 68.9909 85.2913 67.1739 85.0691C66.2853 84.958 65.587 84.6882 65.1585 84.4899C65.2062 84.4661 65.8568 84.1407 65.9282 83.5139C65.9441 83.3631 65.9282 83.2124 65.8885 83.0695C66.2773 83.0299 66.674 82.8473 66.92 82.4903C67.2691 82.5141 67.6341 82.4665 67.9674 82.2919C68.1419 82.1967 68.3086 82.0697 68.4434 81.9031C68.5069 81.8158 68.5704 81.7285 68.618 81.6175C68.6656 81.5302 68.7053 81.3556 68.7132 81.2921C68.7608 80.816 68.5783 80.4034 68.3006 80.0781C68.2292 79.9987 68.1499 79.9273 68.0626 79.8559C68.015 79.8162 67.9674 79.7845 67.9356 79.7686L67.8642 79.729L67.7928 79.6893C67.6024 79.5941 67.3961 79.5306 67.1818 79.4989H67.166H67.1104C66.4915 79.5147 65.8806 79.4592 65.2776 79.364C64.6825 79.2687 64.0795 79.1021 63.4923 78.9196L64.1747 79.0942L63.6431 67.9061C61.1516 65.8668 64.7539 49.7116 63.6272 49.2593C62.4925 48.807 62.8179 48.1008 62.8179 48.1008L63.3574 47.585C63.4685 47.474 63.532 47.3232 63.532 47.1645C63.532 47.0058 63.4606 46.855 63.3415 46.7519L62.8179 46.2917L63.7462 45.3712C64.9602 44.0937 62.4529 35.6828 62.8734 31.4139C63.1114 31.2949 63.3257 31.152 63.524 30.9854C66.6978 31.0092 72.3552 38.6187 72.3552 38.6187C73.1883 39.1821 74.3388 39.7137 75.5369 40.1739L66.9676 66.335C66.4519 66.5889 66.1345 66.8984 66.1345 67.2792C66.1345 67.6204 66.3963 67.8982 66.8169 68.1362C67.3961 71.564 71.3713 74.2381 76.2748 74.365C81.1784 74.2381 85.1535 71.564 85.7328 68.1362C86.1533 67.8982 86.4151 67.6204 86.4151 67.2792C86.4151 66.8984 86.1057 66.5889 85.582 66.335L77.2032 40.769C79.6073 41.5625 81.8052 42.0624 81.8052 42.0624C81.8052 42.0624 79.282 39.4519 76.8937 37.6824L64.5714 29.327C64.6349 29.0731 64.6825 28.8033 64.6825 28.5256C64.6825 27.4624 64.1588 26.526 63.3653 25.9389H63.3733H63.3574C63.2543 25.8595 63.1432 25.796 63.0242 25.7326C62.7464 25.4945 62.3894 25.0105 62.2942 24.0345C62.1831 22.876 63.8017 23.2648 62.7226 21.7334C62.7226 21.7334 63.04 21.1066 62.3973 20.8765C62.3973 20.8765 62.8099 20.6622 61.4531 17.7501C60.0963 20.6622 60.5089 20.8765 60.5089 20.8765C59.8662 21.1066 60.1836 21.7334 60.1836 21.7334C59.1045 23.2648 60.6279 22.876 60.6121 24.0345C60.5883 25.2961 59.9297 25.7167 59.7472 25.804C59.7472 25.804 59.7393 25.804 59.7313 25.804C59.7075 25.8119 59.6996 25.8198 59.6996 25.8198C59.5488 25.9151 59.406 26.0341 59.2711 26.1531L49.9639 18.7499C47.7105 17.1709 44.497 15.9331 44.497 15.9331C44.497 15.9331 45.8697 18.7182 47.8534 20.7733L42.4023 37.4205C42.0611 37.5872 41.8628 37.7935 41.8628 38.0395C41.8628 38.2616 42.0373 38.4441 42.3071 38.5949C42.688 40.8246 45.2746 42.5702 48.4643 42.6575C51.6619 42.5782 54.2486 40.8325 54.6215 38.5949C54.8992 38.4362 55.0658 38.2537 55.0658 38.0395C55.0658 37.7935 54.8595 37.5872 54.5263 37.4205L49.4561 21.9556C51.2097 22.7015 56.4068 25.066 58.3111 27.7321C58.2476 27.9861 58.2079 28.2558 58.2079 28.5336C58.2079 29.2397 58.4459 29.8904 58.8347 30.422L58.7395 30.7632C58.7951 30.668 58.8268 30.5649 58.8665 30.4696C59.168 30.8743 59.5647 31.2076 60.0249 31.4298C60.4454 35.6987 57.9381 44.1096 59.1521 45.3871L60.0805 46.3075L59.5568 46.7678C59.4378 46.8709 59.3663 47.0217 59.3663 47.1804C59.3663 47.3391 59.4298 47.4898 59.5409 47.6009L60.0805 48.1167C60.0805 48.1167 60.3978 48.8229 59.2711 49.2752C58.1365 49.7274 61.7388 65.8827 59.2553 67.922L59.0014 72.3813C58.9061 72.1433 58.8109 71.8973 58.7157 71.6593C58.4539 71.0324 58.1682 70.4373 57.8508 69.8422C57.5335 69.255 57.1843 68.6837 56.7876 68.1362C56.3909 67.5887 55.9307 67.065 55.4467 66.6127C54.4866 65.6843 53.3758 64.9067 52.1697 64.3275C51.5746 64.026 50.924 63.8197 50.2813 63.6451C49.6466 63.5023 48.9324 63.3833 48.2977 63.4071C47.6391 63.3833 46.9726 63.4785 46.3299 63.6451C45.6952 63.8276 45.1159 64.0736 44.5605 64.3989C44.3304 64.4306 44.1241 64.4624 43.9575 64.4941C44.7113 64.1847 47.5836 62.193 46.7743 59.4158C46.2585 57.6622 44.8224 57.1068 43.2513 56.6466C43.1164 56.6069 47.9486 59.3286 43.894 64.3672C43.9337 60.3601 42.569 56.6387 40.7361 54.1392C46.3775 67.1285 38.1732 68.7313 31.1036 63.5261C32.5873 66.7476 34.9756 69.0487 38.6652 69.0328C37.6496 74.5079 37.594 78.6736 42.323 83.4663C42.0373 82.1808 39.0222 78.023 39.9426 72.8495C40.5933 69.1598 42.2595 66.9698 44.3384 66.1525C47.7264 64.8274 51.4953 67.549 53.2726 69.6756C54.4866 71.1276 55.2245 73.4763 55.4308 74.0635C55.8672 75.2775 56.0338 76.0869 56.7242 77.8563C57.4938 79.8242 57.6049 80.1971 57.9699 80.5939C58.7395 81.4429 59.6679 81.7444 61.1516 82.2205C62.675 82.7125 63.4844 82.7839 64.1191 82.7204C64.3651 82.6966 64.8491 82.6252 65.1824 82.9188C65.4521 83.1489 65.6267 83.625 65.4601 83.9741C65.3886 84.1328 65.2696 84.228 65.2141 84.2677C65.0475 84.4026 64.8412 84.4819 64.6349 84.4899C64.6269 84.593 64.6031 84.6962 64.5476 84.7993C64.3572 85.1484 63.9446 85.2833 63.6034 85.1167C63.6351 85.1802 63.6431 85.2357 63.651 85.2913C63.651 85.2913 63.6589 85.4817 63.5002 85.688C63.0162 86.3149 61.2786 86.3625 61.2786 86.3625C59.9932 86.3942 59.5964 86.1244 58.9538 86.3863C58.8903 86.4101 58.5808 86.537 57.9619 86.8148C57.7556 86.91 57.0019 87.2829 55.9386 87.4178C55.6768 87.4495 55.5498 87.4733 55.3832 87.4654C54.3914 87.4099 53.0981 86.7513 52.7966 85.5055C52.5744 84.6009 52.9632 83.9979 53.0981 83.7598C53.0346 83.6012 52.6775 83.5059 52.5744 83.3393C51.9555 82.2998 52.5427 81.9904 51.9714 81.7841C50.6066 80.5621 49.3609 79.1656 48.8055 78.3245C47.8851 76.928 47.655 75.8885 47.5518 75.2061C47.4804 74.7221 47.4804 74.3095 47.4963 74.0238C47.0837 74.9205 46.8377 76.7852 48.6785 79.1656C51.2811 82.522 53.7408 85.077 50.6542 89.4332C49.0594 91.6867 46.5442 91.8216 44.1003 91.6312C40.3076 91.3297 36.261 88.8778 34.2694 86.7275C32.5477 84.8707 30.7068 82.2126 29.5246 79.3798C28.4058 76.6899 27.7552 74.2619 27.3981 71.4133C27.168 69.5883 27.057 67.9458 27.0173 65.7399C26.9538 61.6852 27.1442 61.5344 22.7564 61.4313C12.5923 61.1853 7.3714 48.934 11.9576 40.5707C20.503 28.0337 36.0468 34.9687 33.9679 43.9509C35.1026 43.4351 35.2613 42.4115 35.3961 41.6498C39.5776 41.3562 40.7123 46.7836 40.744 49.418C40.744 49.9813 41.0455 50.1718 40.8948 50.7352C40.7758 51.3541 40.2045 51.6477 39.7443 52.338C38.8873 53.6155 37.713 55.2421 36.4276 56.353C35.3485 57.2814 33.9838 57.8686 33.1824 58.1066C36.0785 57.6861 38.2446 55.258 39.895 53.5044C40.5615 52.3142 41.5216 52.3221 41.839 51.3779C42.1643 50.4178 41.9739 50.2035 41.839 48.8149C41.6406 46.7836 41.4899 44.3397 40.5219 42.594C39.1809 40.1739 37.6416 39.8327 36.0706 39.5788C34.6503 38.9916 34.7376 37.9204 33.6188 36.4604C29.3104 30.8426 20.5189 29.7079 14.4569 33.5563C7.66498 37.8649 4.79268 46.736 5.21321 56.0753C5.70515 66.8587 10.3389 78.2848 14.2903 83.982C30.0562 106.755 61.4293 114.975 90.073 93.6863L92.8024 91.655C93.0881 91.3059 92.8897 90.9885 92.7072 90.8298L92.739 90.8139ZM75.7829 68.4377C70.9904 68.3742 67.8166 67.7712 67.166 67.2951C67.8245 66.827 70.9984 66.216 75.7829 66.1525V68.4298V68.4377ZM75.7829 65.1924C73.9579 65.2162 70.3557 65.3511 68.1023 65.9462L75.7829 42.5068V65.1924ZM76.743 68.4377V66.1604C81.5354 66.2239 84.7092 66.827 85.3598 67.303C84.7013 67.7712 81.5275 68.3822 76.743 68.4457V68.4377ZM76.743 65.1924V42.5068L84.4236 65.9462C82.1702 65.3511 78.5758 65.2162 76.743 65.1924ZM48.1549 38.7933C45.0366 38.7536 42.9657 38.3569 42.5372 38.0474C42.9657 37.7379 45.0287 37.3491 48.1549 37.3015V38.7853V38.7933ZM48.1549 36.6747C46.9647 36.6905 44.624 36.7778 43.1482 37.1666L48.1549 21.8921V36.6747ZM48.7817 38.7933V37.3095C51.9 37.3491 53.9709 37.7459 54.3993 38.0553C53.9709 38.3648 51.9079 38.7536 48.7817 38.8012V38.7933ZM48.7817 36.6747V21.8921L53.7884 37.1666C52.3205 36.7778 49.9798 36.6905 48.7817 36.6747ZM64.6666 82.0856C63.897 82.1253 62.8258 82.0935 61.6198 81.7761C60.3344 81.4349 59.2791 81.0779 58.438 80.1495C58.081 79.7528 57.9699 79.3798 57.1923 77.412C57.0019 76.9359 56.867 76.555 56.7559 76.2376C56.2719 74.8887 55.9783 73.8731 55.899 73.6192C55.5895 72.6114 54.8278 70.6436 53.7408 69.0884C53.4472 68.6678 50.4162 64.4545 45.7428 64.3354C45.3064 64.3275 44.9176 64.3513 44.5843 64.391C44.862 64.2799 45.1556 64.2164 45.4413 64.145C45.7666 64.0815 46.0601 63.9942 46.3775 63.9704C47.0044 63.9149 47.6312 63.9069 48.2501 64.0101C48.9007 64.0815 49.4403 64.2402 50.0433 64.4306C50.6146 64.6449 51.17 64.8988 51.7016 65.2162C52.7648 65.8192 53.717 66.6286 54.566 67.5014C55.4229 68.3742 56.0576 69.4058 56.6448 70.5087C56.9304 71.0562 57.2002 71.6275 57.4224 72.1988C57.6525 72.8019 57.8905 73.4049 58.1444 74L58.5253 74.9205L58.922 75.8012C59.2077 76.4043 59.4616 76.9677 59.771 77.5628C59.9297 77.8563 60.0805 78.1817 60.3661 78.5149C60.4375 78.5943 60.5089 78.6657 60.5883 78.7371C60.6517 78.7927 60.6993 78.8403 60.7787 78.9037C60.9294 79.0307 61.0723 79.1339 61.231 79.237C61.8419 79.6417 62.5243 79.8718 63.1749 80.0225C63.8176 80.1733 64.4682 80.3082 65.1506 80.3638C65.8092 80.4193 66.4677 80.3955 67.1184 80.3161C67.2453 80.3161 67.3643 80.3399 67.4834 80.3876L67.531 80.4034C67.531 80.4034 67.5548 80.4114 67.5468 80.4034L67.5786 80.4193C67.6262 80.4431 67.65 80.459 67.6659 80.4669C67.7135 80.4986 67.769 80.5383 67.8166 80.578C68.015 80.7446 68.1578 81.0223 68.1657 81.2445C68.1657 81.3556 68.1657 81.3477 68.1419 81.427C68.1261 81.4905 68.0943 81.546 68.0626 81.6016C67.9912 81.7206 67.888 81.8238 67.769 81.911C67.523 82.0935 67.2057 82.1808 66.8883 82.2046H66.7931L66.7693 82.276C66.6264 82.6252 66.2932 82.895 65.8965 83.006C65.7378 82.5538 65.3014 82.157 64.6983 82.0539L64.6666 82.0856Z"
        fill="#164050" />
</svg>
